{"title":"Bad Neighbors 2014 WEBRIP x264 AC3 TiTAN","uid":10397059,"size":1260655182,"categoryP":"video","categoryS":"movies","magnet":"?xt=urn:btih:98ae2d3c3da628764289d41e0195e114952f46c5&amp;dn=Bad+Neighbors+2014+WEBRIP+x264+AC3+TiTAN&amp;tr=udp%3A%2F%2Ftracker.openbittorrent.com%3A80&amp;tr=udp%3A%2F%2Fopen.demonii.com%3A1337&amp;tr=udp%3A%2F%2Ftracker.coppersurfer.tk%3A6969&amp;tr=udp%3A%2F%2Fexodus.desync.com%3A6969","seeders":22,"leechers":0,"uploader":"xxxlavalxxx","files":-1,"time":1403278060,"description":"[IMG]http://i.imgur.com/Ysp4XVS.jpg[/IMG]\n\n &lt;a href=&quot;\nhttp://www.imdb.com/title/tt2004420/&quot; rel=&quot;nofollow&quot; target=&quot;_NEW&quot;&gt;\nhttp://www.imdb.com/title/tt2004420/&lt;/a&gt;\n\n\nKelly and Mac are settling down in a quiet neighborhood with their newborn child, until the frat brothers move into the house next door. Teddy is the President, and Pete is his right hand man, and they're quick to accept friendship when Kelly and Mac introduce themselves as the neighbors. Night after night, Mac asks Teddy to lower the fraternity's noise, even accepting the invitation to the party one evening. When Teddy goes back on his word to keep the partying down, Mac calls the police to deal with the problem. The police quickly blame Mac for their presence, and the war begins. As the family feuds with the frat brothers, things get hilariously dangerous and the fraternity end ups on thin ice with their college. After receiving their final warning and being placed on probation, Mac and Kelly pull a prank so ingenious that Teddy and Mac are forced to respond. All hell breaks loose, from Robert DeNiro parties to Christopher Mintz-Plasse having sex in the bushes, this comedy shows how...\n\nDirector: Nicholas Stoller\nWriters: Andrew J. Cohen, Brendan O'Brien\nStars: Seth Rogen, Rose Byrne, Zac Efron\nGenres: Comedy\nCountry: USA\nLanguage: English\n\n\nSource: R6 VOD\n\nAnother nice Chinese Webrip.. Does have hard-coded subs, but like the others still Overall good quality.. Enjoy\n\nGeneral\n\nFormat                                   : Matroska\nFormat version                           : Version 2\nFile size                                : 1.17 GiB\nDuration                                 : 1h 32mn\nOverall bit rate mode                    : Variable\nOverall bit rate                         : 1 813 Kbps\nEncoded date                             : UTC 2014-06-20 12:04:01\nWriting application                      : mkvmerge v7.0.0 ('Where We Going') 32bit built on Jun  9 2014 15:08:34\n\n\nVideo\nID                                       : 1\nFormat                                   : AVC\nFormat/Info                              : Advanced Video Codec\nFormat profile                           : &lt;a class=&quot;__cf_email__&quot; href=&quot;/cdn-cgi/l/email-protection&quot; data-cfemail=&quot;1d55747a755d5129332c&quot;&gt;[email&amp;#160;protected]&lt;/a&gt;&lt;script cf-hash='f9e31' type=&quot;text/javascript&quot;&gt;\n/* &lt;![CDATA[ */!function(){try{var t=&quot;currentScript&quot;in document?document.currentScript:function(){for(var t=document.getElementsByTagName(&quot;script&quot;),e=t.length;e--;)if(t[e].getAttribute(&quot;cf-hash&quot;))return t[e]}();if(t&amp;&amp;t.previousSibling){var e,r,n,i,c=t.previousSibling,a=c.getAttribute(&quot;data-cfemail&quot;);if(a){for(e=&quot;&quot;,r=parseInt(a.substr(0,2),16),n=2;a.length-n;n+=2)i=parseInt(a.substr(n,2),16)^r,e+=String.fromCharCode(i);e=document.createTextNode(e),c.parentNode.replaceChild(e,c)}}}catch(u){}}();/* ]]&gt; */&lt;/script&gt;\nFormat settings, CABAC                   : Yes\nFormat settings, ReFrames                : 3 frames\nCodec ID                                 : V_MPEG4/ISO/AVC\nDuration                                 : 1h 32mn\nBit rate mode                            : Variable\nBit rate                                 : 1 553 Kbps\nMaximum bit rate                         : 40.0 Mbps\nWidth                                    : 720 pixels\nHeight                                   : 400 pixels\nDisplay aspect ratio                     : 1.85:1\nFrame rate mode                          : Constant\nFrame rate                               : 25.000 fps\nColor space                              : YUV\nChroma subsampling                       : 4:2:0\nBit depth                                : 8 bits\nScan type                                : Progressive\nBits/(Pixel*Frame)                       : 0.216\nStream size                              : 1.01 GiB (86%)\nWriting library                          : x264 core 142 r2431 ac76440\nDefault                                  : Yes\nForced                                   : No\nColor primaries                          : BT.709\nTransfer characteristics                 : BT.709\nMatrix coefficients                      : BT.709\n\nAudio\nID                                       : 2\nFormat                                   : AC-3\nFormat/Info                              : Audio Coding 3\nMode extension                           : CM (complete main)\nFormat settings, Endianness              : Big\nCodec ID                                 : A_AC3\nDuration                                 : 1h 32mn\nBit rate mode                            : Constant\nBit rate                                 : 224 Kbps\nChannel(s)                               : 2 channels\nChannel positions                        : Front: L R\nSampling rate                            : 44.1 KHz\nBit depth                                : 16 bits\nCompression mode                         : Lossy\nStream size                              : 149 MiB (12%)\nDefault                                  : Yes\nForced                                   : No\n\n\nscreens\n &lt;a href=&quot;\nhttp://i.imgur.com/pFXefGd.jpg&quot; rel=&quot;nofollow&quot; target=&quot;_NEW&quot;&gt;\nhttp://i.imgur.com/pFXefGd.jpg&lt;/a&gt; &lt;a href=&quot;\nhttp://i.imgur.com/cFhbfwv.jpg&quot; rel=&quot;nofollow&quot; target=&quot;_NEW&quot;&gt;\nhttp://i.imgur.com/cFhbfwv.jpg&lt;/a&gt; &lt;a href=&quot;\nhttp://i.imgur.com/m1Q5MPc.jpg&quot; rel=&quot;nofollow&quot; target=&quot;_NEW&quot;&gt;\nhttp://i.imgur.com/m1Q5MPc.jpg&lt;/a&gt; &lt;a href=&quot;\nhttp://i.imgur.com/OZ8sVwE.jpg&quot; rel=&quot;nofollow&quot; target=&quot;_NEW&quot;&gt;\nhttp://i.imgur.com/OZ8sVwE.jpg&lt;/a&gt; &lt;a href=&quot;\nhttp://i.imgur.com/DbOjwEZ.jpg&quot; rel=&quot;nofollow&quot; target=&quot;_NEW&quot;&gt;\nhttp://i.imgur.com/DbOjwEZ.jpg&lt;/a&gt; &lt;a href=&quot;\nhttp://i.imgur.com/0A0BXel.jpg&quot; rel=&quot;nofollow&quot; target=&quot;_NEW&quot;&gt;\nhttp://i.imgur.com/0A0BXel.jpg&lt;/a&gt;","torrent":{"xt":"urn:btih:98ae2d3c3da628764289d41e0195e114952f46c5","amp;dn":"Bad+Neighbors+2014+WEBRIP+x264+AC3+TiTAN","amp;tr":["udp%3A%2F%2Ftracker.openbittorrent.com%3A80","udp%3A%2F%2Fopen.demonii.com%3A1337","udp%3A%2F%2Ftracker.coppersurfer.tk%3A6969","udp%3A%2F%2Fexodus.desync.com%3A6969"],"infoHash":"98ae2d3c3da628764289d41e0195e114952f46c5","infoHashBuffer":{"type":"Buffer","data":[152,174,45,60,61,166,40,118,66,137,212,30,1,149,225,20,149,47,70,197]},"announce":[],"urlList":[]}}